HIERARCHY
ROOT Hips
{
	OFFSET 0.000000 0.000000 0.000000
	CHANNELS 6 Xposition Yposition Zposition Xrotation Yrotation Zrotation
	JOINT LeftUpLeg_virtual
	{
		OFFSET 0.000000 0.000000 0.000000
		CHANNELS 3 Xrotation Yrotation Zrotation
		JOINT LeftUpLeg
		{
			OFFSET 11.394100 -6.187798 -0.413800
			CHANNELS 3 Xrotation Yrotation Zrotation
			JOINT LeftLeg
			{
				OFFSET 0.430247 -32.302673 3.732800
				CHANNELS 3 Xrotation Yrotation Zrotation
				JOINT LeftFoot
				{
					OFFSET -0.430247 -48.264931 -6.423300
					CHANNELS 3 Xrotation Yrotation Zrotation
					JOINT LeftToeBase
					{
						OFFSET 4.230900 -16.068199 23.438400
						CHANNELS 3 Xrotation Yrotation Zrotation
						JOINT LeftToe_End
						{
							OFFSET 4.510700 0.695400 19.974600
							CHANNELS 3 Xrotation Yrotation Zrotation
							End Site
							{
								OFFSET 0 0 0
							}
						}
					}
				}
			}
		}
	}
	JOINT RightUpLeg_virtual
	{
		OFFSET 0.000000 0.000000 0.000000
		CHANNELS 3 Xrotation Yrotation Zrotation
		JOINT RightUpLeg
		{
			OFFSET -11.333700 -6.187798 -0.413800
			CHANNELS 3 Xrotation Yrotation Zrotation
			JOINT RightLeg
			{
				OFFSET -0.430392 -32.302628 3.733000
				CHANNELS 3 Xrotation Yrotation Zrotation
				JOINT RightFoot
				{
					OFFSET 0.430392 -48.264973 -6.423500
					CHANNELS 3 Xrotation Yrotation Zrotation
					JOINT RightToeBase
					{
						OFFSET -4.230900 -16.068199 23.438400
						CHANNELS 3 Xrotation Yrotation Zrotation
						JOINT RightToe_End
						{
							OFFSET -4.510700 0.695400 19.974600
							CHANNELS 3 Xrotation Yrotation Zrotation
							End Site
							{
								OFFSET 0 0 0
							}
						}
					}
				}
			}
		}
	}
	JOINT Spine_virtual
	{
		OFFSET 0.000000 0.000000 0.000000
		CHANNELS 3 Xrotation Yrotation Zrotation
		JOINT Spine
		{
			OFFSET -0.002400 12.777504 0.315300
			CHANNELS 3 Xrotation Yrotation Zrotation
			JOINT Spine1
			{
				OFFSET -0.002067 5.816869 0.032633
				CHANNELS 3 Xrotation Yrotation Zrotation
				JOINT Spine1_split
				{
					OFFSET -0.002067 5.816869 0.032633
					CHANNELS 3 Xrotation Yrotation Zrotation
					JOINT Spine2
					{
						OFFSET -0.002067 5.816869 0.032633
						CHANNELS 3 Xrotation Yrotation Zrotation
						JOINT Neck_virtual
						{
							OFFSET 0.000000 0.000000 0.000000
							CHANNELS 3 Xrotation Yrotation Zrotation
							JOINT Neck
							{
								OFFSET -0.003700 21.199493 -0.826900
								CHANNELS 3 Xrotation Yrotation Zrotation
								JOINT Head
								{
									OFFSET 0.000000 20.442200 4.834800
									CHANNELS 3 Xrotation Yrotation Zrotation
									JOINT HeadTop_End
									{
										OFFSET 0.000000 34.668396 4.968400
										CHANNELS 3 Xrotation Yrotation Zrotation
										End Site
										{
											OFFSET 0 0 0
										}
									}
								}
							}
						}
						JOINT LeftShoulder_virtual
						{
							OFFSET 0.000000 0.000000 0.000000
							CHANNELS 3 Xrotation Yrotation Zrotation
							JOINT LeftShoulder
							{
								OFFSET 3.288150 8.794197 -1.372250
								CHANNELS 3 Xrotation Yrotation Zrotation
								JOINT LeftShoulder_split
								{
									OFFSET 3.288150 8.794197 -1.372250
									CHANNELS 3 Xrotation Yrotation Zrotation
									JOINT LeftArm
									{
										OFFSET 11.953299 -2.279007 -0.146200
										CHANNELS 3 Xrotation Yrotation Zrotation
										JOINT LeftForeArm
										{
											OFFSET 18.448900 0.000000 0.000000
											CHANNELS 3 Xrotation Yrotation Zrotation
											JOINT LeftHand
											{
												OFFSET 29.527798 0.000000 0.000000
												CHANNELS 3 Xrotation Yrotation Zrotation
												End Site
												{
													OFFSET 0 0 0
												}
											}
										}
									}
								}
							}
						}
						JOINT RightShoulder_virtual
						{
							OFFSET 0.000000 0.000000 0.000000
							CHANNELS 3 Xrotation Yrotation Zrotation
							JOINT RightShoulder
							{
								OFFSET -3.249400 8.794197 -1.372250
								CHANNELS 3 Xrotation Yrotation Zrotation
								JOINT RightShoulder_split
								{
									OFFSET -3.249400 8.794197 -1.372250
									CHANNELS 3 Xrotation Yrotation Zrotation
									JOINT RightArm
									{
										OFFSET -11.953299 -2.279007 -0.146200
										CHANNELS 3 Xrotation Yrotation Zrotation
										JOINT RightForeArm
										{
											OFFSET -18.448900 0.000000 0.000000
											CHANNELS 3 Xrotation Yrotation Zrotation
											JOINT RightHand
											{
												OFFSET -29.527802 0.000000 0.000000
												CHANNELS 3 Xrotation Yrotation Zrotation
												End Site
												{
													OFFSET 0 0 0
												}
											}
										}
									}
								}
							}
						}
					}
				}
			}
		}
	}
}
MOTION
Frames: 7
Frame Time: 0.03333333
-0.100066 100.007668 1.004097 0.000000 0.000000 0.000000 -2.728582 3.563249 0.722784 -4.240504 11.466989 5.366419 18.070095 -4.103027 0.952604 -11.353264 0.769237 -4.620346 -0.000025 -0.000002 0.000001 0.000000 0.000000 0.000000 -2.728582 3.563249 0.722784 -0.635243 -4.520307 -5.540821 18.152536 -9.286933 4.292960 -12.830293 -19.093946 3.025085 -0.007143 -0.000012 -0.000001 0.000000 0.000000 0.000000 -2.728582 3.563249 0.722784 -0.566155 -0.760370 -3.852800 1.149532 -0.103991 1.499583 0.000000 0.000000 0.000000 0.000000 0.000000 0.000000 1.152620 -0.098084 1.497723 8.457851 0.270831 0.379498 -3.010869 1.242466 1.518414 0.000000 0.000000 0.000000 1.152620 -0.098084 1.497723 6.883882 -26.760615 -3.764301 0.000000 0.000000 0.000000 5.911089 4.517229 -79.896377 0.000002 -18.872940 -0.000007 0.000000 0.000000 0.000000 1.152620 -0.098084 1.497723 0.447593 -3.990811 8.744686 0.000000 0.000000 0.000000 8.902106 19.263656 69.814096 0.000000 13.419896 -0.000014 0.000000 0.000000 0.000000 
-0.113822 100.002930 1.037701 0.000000 0.000000 0.000000 -2.702047 3.540759 0.712857 -4.246618 11.473190 5.388087 18.073876 -4.090291 0.950772 -11.378263 0.773038 -4.637149 -0.000014 0.000003 0.000000 0.000000 0.000000 0.000000 -2.702047 3.540759 0.712857 -0.637327 -4.523315 -5.533539 18.147898 -9.285625 4.307471 -12.853353 -19.070206 3.014791 -0.008595 -0.000014 -0.000000 0.000000 0.000000 0.000000 -2.702047 3.540759 0.712857 -0.563490 -0.771767 -3.854194 1.142373 -0.105478 1.505871 0.000000 0.000000 0.000000 0.000000 0.000000 0.000000 1.145511 -0.099612 1.504005 8.426179 0.289927 0.361756 -3.008405 1.323639 1.520888 0.000000 0.000000 0.000000 1.145511 -0.099612 1.504005 6.876202 -26.741157 -3.765901 0.000000 0.000000 0.000000 5.916047 4.497555 -79.909812 -0.000001 -18.862134 0.000010 0.000000 0.000000 0.000000 1.145511 -0.099612 1.504005 0.447137 -3.992708 8.741735 0.000000 0.000000 0.000000 8.916819 19.279768 69.800811 -0.000001 13.450140 0.000022 0.000000 0.000000 0.000000 
-0.128648 99.999191 1.074650 0.000000 0.000000 0.000000 -2.680977 3.521355 0.703797 -4.240483 11.479945 5.407380 18.069938 -4.079191 0.951997 -11.402206 0.777208 -4.656072 -0.000070 -0.000001 -0.000002 0.000000 0.000000 0.000000 -2.680977 3.521355 0.703797 -0.624670 -4.527765 -5.522529 18.134256 -9.286808 4.320532 -12.877087 -19.053873 3.003303 -0.016677 0.000012 -0.000001 0.000000 0.000000 0.000000 -2.680977 3.521355 0.703797 -0.559832 -0.789364 -3.856845 1.139017 -0.107763 1.516219 0.000000 0.000000 0.000000 0.000000 0.000000 0.000000 1.142232 -0.101915 1.514326 8.400877 0.302968 0.350914 -3.003915 1.378162 1.526990 0.000000 0.000000 0.000000 1.142232 -0.101915 1.514326 6.868264 -26.720786 -3.769767 0.000000 0.000000 0.000000 5.924329 4.484678 -79.910071 -0.000001 -18.854210 -0.000012 0.000000 0.000000 0.000000 1.142232 -0.101915 1.514326 0.444131 -4.009371 8.740164 0.000000 0.000000 0.000000 8.941826 19.288167 69.773203 0.000003 13.479141 -0.000018 0.000000 0.000000 0.000000 
-0.142712 99.996338 1.113998 0.000000 0.000000 0.000000 -2.662888 3.501295 0.696949 -4.222955 11.480535 5.415750 18.058395 -4.057695 0.963009 -11.425281 0.782129 -4.680320 -0.000018 0.000003 0.000000 0.000000 0.000000 0.000000 -2.662888 3.501295 0.696949 -0.604414 -4.538052 -5.514515 18.116814 -9.292279 4.336688 -12.901543 -19.034441 2.990944 -0.032138 0.000007 -0.000001 0.000000 0.000000 0.000000 -2.662888 3.501295 0.696949 -0.565286 -0.806397 -3.860361 1.139501 -0.109953 1.527966 0.000000 0.000000 0.000000 0.000000 0.000000 0.000000 1.142801 -0.104127 1.526041 8.383361 0.309694 0.345250 -2.997001 1.404831 1.532885 0.000000 0.000000 0.000000 1.142801 -0.104127 1.526041 6.863711 -26.702450 -3.776578 0.000000 0.000000 0.000000 5.915646 4.470644 -79.880551 -0.000003 -18.864974 0.000010 0.000000 0.000000 0.000000 1.142801 -0.104127 1.526041 0.440766 -4.028572 8.739297 0.000000 0.000000 0.000000 8.925579 19.299311 69.755889 -0.000004 13.470421 0.000002 0.000000 0.000000 0.000000 
-0.156215 99.992661 1.152966 0.000000 0.000000 0.000000 -2.642056 3.468915 0.689726 -4.205662 11.470709 5.413779 18.049740 -4.010092 0.986622 -11.451216 0.788403 -4.713616 -0.000017 0.000003 0.000000 0.000000 0.000000 0.000000 -2.642056 3.468915 0.689726 -0.592161 -4.558610 -5.517973 18.105450 -9.299837 4.362639 -12.926049 -18.984342 2.979200 -0.047991 0.000007 0.000000 0.000000 0.000000 0.000000 -2.642056 3.468915 0.689726 -0.572145 -0.822490 -3.862257 1.138693 -0.112034 1.537105 0.000000 0.000000 0.000000 0.000000 0.000000 0.000000 1.142071 -0.106243 1.535152 8.370986 0.312571 0.342998 -2.991517 1.416710 1.533747 0.000000 0.000000 0.000000 1.142071 -0.106243 1.535152 6.870897 -26.697541 -3.784123 0.000000 0.000000 0.000000 5.864635 4.456507 -79.798951 -0.000003 -18.918304 0.000003 0.000000 0.000000 0.000000 1.142071 -0.106243 1.535152 0.437575 -4.047694 8.737074 0.000000 0.000000 0.000000 8.800782 19.343369 69.767862 -0.000003 13.390832 0.000028 0.000000 0.000000 0.000000 
-0.169361 99.986267 1.186466 0.000000 0.000000 0.000000 -2.621471 3.412817 0.679444 -4.194669 11.446294 5.401643 18.057639 -3.920893 1.028123 -11.483926 0.796736 -4.760371 -0.000023 0.000003 -0.000001 0.000000 0.000000 0.000000 -2.621471 3.412817 0.679444 -0.599197 -4.591239 -5.537356 18.114939 -9.306917 4.398665 -12.949905 -18.879638 2.972484 -0.057803 -0.000005 -0.000000 0.000000 0.000000 0.000000 -2.621471 3.412817 0.679444 -0.541543 -0.847675 -3.857812 1.124742 -0.115415 1.540028 0.000000 0.000000 0.000000 0.000000 0.000000 0.000000 1.128220 -0.109646 1.538072 8.361498 0.314390 0.342355 -2.991515 1.427001 1.529198 0.000000 0.000000 0.000000 1.128220 -0.109646 1.538072 6.906336 -26.753187 -3.781708 0.000000 0.000000 0.000000 5.766482 4.476470 -79.650688 -0.000005 -19.020009 -0.000001 0.000000 0.000000 0.000000 1.128220 -0.109646 1.538072 0.431419 -4.085453 8.733368 0.000000 0.000000 0.000000 8.489775 19.485029 69.809554 -0.000002 13.221563 -0.000007 0.000000 0.000000 0.000000 
-0.180661 99.975090 1.207291 0.000000 0.000000 0.000000 -2.611724 3.329513 0.663981 -4.193752 11.400182 5.375837 18.101171 -3.779107 1.097725 -11.527714 0.807755 -4.824364 -0.000021 -0.000003 -0.000000 0.000000 0.000000 0.000000 -2.611724 3.329513 0.663981 -0.630632 -4.631225 -5.564341 18.160706 -9.316006 4.432663 -12.971672 -18.722605 2.976708 -0.063653 -0.000005 -0.000000 0.000000 0.000000 0.000000 -2.611724 3.329513 0.663981 -0.429798 -0.898849 -3.841099 1.084894 -0.122428 1.533833 0.000000 0.000000 0.000000 0.000000 0.000000 0.000000 1.088542 -0.116639 1.531929 8.356546 0.316248 0.341673 -2.994642 1.439069 1.522847 0.000000 0.000000 0.000000 1.088542 -0.116639 1.531929 6.953068 -26.850112 -3.769884 0.000000 0.000000 0.000000 5.634200 4.531739 -79.447367 0.000001 -19.130060 0.000005 0.000000 0.000000 0.000000 1.088542 -0.116639 1.531929 0.416382 -4.175812 8.728485 0.000000 0.000000 0.000000 7.997171 19.797462 69.818228 -0.000003 13.000971 0.000015 0.000000 0.000000 0.000000 
